<svg width="34" height="34" viewBox="0 0 34 34" fill="none" xmlns="http://www.w3.org/2000/svg">
<path d="M23.0493 29.8614L18.2803 18.348L29.7935 23.1169L28.8312 25.44L28.7055 25.7435L29.0312 25.7006L30.5517 25.5004C29.2836 27.5259 27.5541 29.2823 25.4364 30.593L25.633 29.0991L25.676 28.7734L25.3724 28.8992L23.0493 29.8614ZM18.8594 16.9509L30.3717 12.1824L31.3339 14.5054L31.4596 14.8089L31.6596 14.5483L32.5769 13.3529C33.1477 15.7768 33.1289 18.2416 32.5935 20.5702L31.6602 19.3538L31.4602 19.0931L31.3345 19.3966L30.3723 21.7197L18.8594 16.9509ZM25.4505 3.41721C27.4422 4.65401 29.1764 6.33571 30.486 8.39309L29.0307 8.20148L28.7049 8.1586L28.8307 8.46212L29.7929 10.7853L18.2802 15.554L23.0493 4.04043L25.3723 5.00268L25.6758 5.1284L25.6329 4.80268L25.4505 3.41721ZM16.8831 14.9749L12.1143 3.46193L14.4374 2.49968L14.7409 2.37395L14.4803 2.17396L13.4671 1.39657C15.778 0.870436 18.1232 0.878471 20.3499 1.35743L19.2861 2.17373L19.0255 2.37372L19.3289 2.49944L21.652 3.4617L16.8831 14.9749ZM3.53757 8.35863C4.74206 6.47848 6.34771 4.83663 8.29482 3.57706L8.13344 4.8029L8.09057 5.12862L8.39408 5.00289L10.717 4.04068L15.486 15.5537L3.97277 10.7847L4.93501 8.46162L5.06073 8.15811L4.73502 8.20098L3.53757 8.35863ZM3.39403 12.1819L14.9075 16.9509L3.39341 21.7203L2.43114 19.3971L2.30543 19.0937L2.10543 19.3543L1.35286 20.3351C0.866772 18.0673 0.892563 15.7707 1.37061 13.5894L2.10607 14.5478L2.30606 14.8085L2.43178 14.5049L3.39403 12.1819ZM8.30856 30.4302C6.39477 29.1942 4.73033 27.5411 3.46813 25.5344L4.73438 25.7011L5.06009 25.744L4.93437 25.4404L3.97215 23.1174L15.4858 18.3483L10.7169 29.8611L8.39393 28.8989L8.09042 28.7732L8.13329 29.0989L8.30856 30.4302ZM20.451 32.6218C18.0695 33.1509 15.6535 33.1138 13.3701 32.5797L14.4802 31.7279L14.7408 31.5279L14.4372 31.4022L12.1142 30.4399L16.8831 18.9268L21.6521 30.4402L19.3291 31.4024L19.0256 31.5281L19.2863 31.7281L20.451 32.6218Z" fill="white" stroke="#111322" stroke-width="0.379346"/>
</svg>
